<svg viewBox="0 0 512 512" xmlns="http://www.w3.org/2000/svg">
  <defs>
    <linearGradient id="bg" x1="0%" y1="0%" x2="0%" y2="100%">
      <stop offset="0%" stop-color="#1e293b"/>
      <stop offset="100%" stop-color="#0f172a"/>
    </linearGradient>
  </defs>
  <rect width="512" height="512" rx="80" fill="url(#bg)"/>
  <g transform="translate(56, 26) scale(4)">
    <!-- Left wing -->
    <path d="M 25 50 Q 2 38 4 58 Q 10 68 28 60 Z" fill="#5E8FB5" stroke="#94a3b8" stroke-width="1.5" stroke-linejoin="round"/>
    <!-- Right wing -->
    <path d="M 75 50 Q 98 38 96 58 Q 90 68 72 60 Z" fill="#5E8FB5" stroke="#94a3b8" stroke-width="1.5" stroke-linejoin="round"/>
    <!-- Body -->
    <ellipse cx="50" cy="40" rx="26" ry="24" fill="white" stroke="#94a3b8" stroke-width="2"/>
    <!-- Upper beak -->
    <path d="M 37 52 L 50 46 L 63 52 Q 56 50 50 50 Q 44 50 37 52 Z" fill="#E0F0FF" stroke="#94a3b8" stroke-width="1"/>
    <!-- Beak pouch -->
    <path d="M 37 52 Q 30 68 50 82 Q 70 68 63 52 Q 56 60 50 62 Q 44 60 37 52 Z" fill="#4A9FD4" stroke="#94a3b8" stroke-width="2"/>
    <!-- Beak pouch shine -->
    <ellipse cx="50" cy="68" rx="6" ry="5" fill="rgba(255,255,255,0.25)"/>
    <!-- Left eye -->
    <circle cx="37" cy="33" r="5.5" fill="#0f172a"/>
    <circle cx="38.5" cy="31.5" r="1.8" fill="white"/>
    <!-- Right eye -->
    <circle cx="63" cy="33" r="5.5" fill="#0f172a"/>
    <circle cx="64.5" cy="31.5" r="1.8" fill="white"/>
    <!-- Left foot -->
    <path d="M 44 79 L 42 88 M 42 88 L 38 93 M 42 88 L 42 94 M 42 88 L 46 93" stroke="#F97316" stroke-width="2.5" stroke-linecap="round"/>
    <!-- Right foot -->
    <path d="M 56 79 L 58 88 M 58 88 L 54 93 M 58 88 L 58 94 M 58 88 L 62 93" stroke="#F97316" stroke-width="2.5" stroke-linecap="round"/>
  </g>
</svg>
